<?xml version="1.0" encoding="utf-8"?>
<!-- Generator: Adobe Illustrator 23.0.4, SVG Export Plug-In . SVG Version: 6.00 Build 0)  -->
<svg version="1.1" id="Layer_1" xmlns:amcharts="http://amcharts.com/ammap"
	 xmlns="http://www.w3.org/2000/svg" xmlns:xlink="http://www.w3.org/1999/xlink" x="0px" y="0px" viewBox="0 0 800 400"
	 style="enable-background:new 0 0 800 400;" xml:space="preserve">
<style type="text/css">
	.st0{fill:#CCCCCC;stroke:#FFFFFF;stroke-width:0.5;}
	.st1{fill:#DBCDBD;stroke:#B1A699;}
	.st2{display:none;enable-background:new    ;}
	.st3{font-family:'Helvetica';}
	.st4{font-size:13.7402px;}
	.st5{fill:#E8B8A0;stroke:#BB9581;}
	.st6{fill:#F2A385;stroke:#C3846B;}
	.st7{fill:#F88D69;stroke:#C87255;}
	.st8{fill:#FC764F;stroke:#CB5F40;}
	.st9{fill:#FE5C34;stroke:#CD4A2A;}
	.st10{fill:#FF3814;stroke:#CE2D10;}
	.st11{opacity:0;}
</style>
<g>
	<path id="US-AK" class="st0" d="M191.8,495.9l2.9,8.4l3-3l9.4,2.4l-0.9,3.9l8.4,4l6.1-1.1l11.7,6.5l11.1,2.4l4.4,2.5l7.9-2.5
		l8.8,5.4l6.4,2.5l0,0l-0.3,61.9l-0.4,89.8l7.5,0.4l7.5,4.2l5.5,6.6l7.2,9.8l7.2-8.8l7.5-5.3l4.6,7.6l5.7,5.9l7.7,6.3l5.9,10.4
		l9.9,16.2l15,7.9l1.3,9.3l-3.9,7.6l-5.2-5l-7.9-4l-3.6-12.7L331,724.2l-5.4-13.8l-7.7-0.5l-12.7,0.3l-9.5-4l-16.5-15.4l-7.4-2.9
		l-13.4-5.6l-10.6,1l-14.6-7.8l-8.5-7.1l-8.6,2.6l0.7,10.8l-4.3,0.6l-9.2,2.3l-7.3,4.4l-8.9,2.2v-9l5.2-14.5l8.5-3.8l-1.6-4.1
		l-10.5,7.4l-6.4,9.5l-12.5,9.2l4.6,8.1l-9,9.7l-9.5,4.9l-8.7,3.2l-3.1,6.2l-14,5.2l-3.9,6.3l-10.9,4.2l-5.4-2.3l-8.6,2.3l-9.5,2.9
		l-8.1,3.1l-15.3,0.3l-0.6-2.7l10.8-4.2l9.2-2.4l10.6-5.8l10.5,0.7l5.3-5.1l13-6.4l2.4-2.6l6.9-4.1l3.5-11l5.6-8.1l-9.8,2.8l-2-3
		l-5.3,4.5l-3.5-8.6l-3.2,4.9l-1.3-8l-9,4.2l-4.7-1.1l1.4-9l2.7-5.1l-3.5-6.5l-10.4,0.4l-4.4-8.6l-4-4.9l2.3-8.4l-3.7-7.9l5.2-7.8
		l8.1-6.8l4.6-7.1l5.9,0.4l4.1,3.7l7.4-6l4.7,2.5l6.3-3.6l0.3-7.4l-3.1-3.7l6.4-4.9l-4.1-0.8l-7.9,1.7l-2.9,2.9l-4.4-4.8l-9.9-0.8
		l-8.7-6.4l-0.9-7L92.4,567l10.9-3.8l16.3-3.7l5.2,1.4l-2.9,7.7l13.7,2.8l-2.8-11.1l-6.2-8l-2.3-9.2l-3.9-8.5l-6.8-7.5l5.8-7.5
		l10.6,2.4l9.3-5.6l3.4-7.7l7.8-6.5l6-0.6l12.3-5.2l4.9,2.2l10.3-7.6L191.8,495.9z M59.3,587.8l3.1,4.3L67,592l4.1,5.8l6,4.2
		l-1.1,1.5l-6.2,1.5l-4.1-5l-1.6-3.6l-6.2-1.2l-1.1-1.9L59.3,587.8z M84.1,659l-5.2,1l-4-4.2l-3.2-5.3l8-0.4l5.4,3L84.1,659z
		 M172.8,720.5l-8.9,4.5l-3.6-4.4l-0.2-7.1l8-4.2l4.6-1.7l5.1,1.7l2.8,5.1L172.8,720.5z"/>
	<path id="US-AL" class="st0" d="M823.2,403.5l8.1,27.5l7.2,21.9l3.6,6.8l2.2,3.8l-2.7,4.4l-0.2,7.3l1.6,4.1v4.1l-0.1,3.8l1.6,2.8
		l1.3,2.6l-39.9,4.5l-11.1,2.4l-0.1,1.8l5,5.1l-0.6,4.6l-1.1,3.3l-17.8-1l-3.5-34.7l0.3-36.6l0.8-29.6L776,408l23.4-2.2L823.2,403.5
		z"/>
	<path id="US-AR" class="st0" d="M746.5,387l-0.1,1.9l-1.7,3.3l-3.1,2.4l-0.5,3.8l-2.7,3.2l0.6,6.6l-2,2.2l-0.2,1.8l-3.2,1.9
		l0.1,3.3l-2.1,6.2l-2.1,1.4l-3.2,3.3l-1.7,4.8l-3.7,8.1l-0.2,5.4l2.5,5.8l-0.7,4.5l-16.2,0l-20.9,1.6l-18.5,0.5l0.8-12.9h-4.4
		l-3.7,0.4l-1-1.5l0.2-19.9l0-22.1l-4-23.9l22.3-0.2l20.2-0.6l19.3-0.9l20.9,0.2l1.7,2.7l-1.9,2.6l-1.9,2.6l-1,2.3L746.5,387z"/>
	<path id="US-AZ" class="st0" d="M393.2,351.9l-18.4,127.4l-38.4-5.9l-41-23.7L269,433.1l2.6-3.9l2.5,0.5l3-4l-2.7-3.8l0-3.5
		l-0.2-4.1l4.7-4.4l3.6-9.9l6.6-3.4l-2.6-5L285,387l-0.7-4.2l-0.4-3.2l0-2.1l2-4.1l0-4.5l0.5-4.4l1-4.8l-1-3.4l1.8-2.5l3.8,0.8
		l3.1,2.3l2.3,1.4l1.9-3.1l0.9-0.6l3.5-17.9l28.9,5.2l34.4,6L393.2,351.9z"/>
	<path id="US-CA" class="st0" d="M227.7,202.2L210,267.9l24.9,38.1l24.8,36.7l24.2,34.8l0,2.1l0.4,3.2l0.7,4.2l1.5,4.7l2.6,5
		l-6.6,3.4L279,410l-4.7,4.4l0.2,4.1l0,3.5l2.7,3.8l-3,4l-2.5-0.5l-24.4-2.8l-21.8-3.2l-0.3-8.7l-5.1-13.4L203.6,383l-7.2-2.7
		l-6.1-9l-13.9-5.6l-3.7-4.8l1.1-12.6l-11-26.9l-5.6-34.5l2.1-4.9l-5.4-9.5l-7.5-22.2l3.2-18.4l-5.1-14.6l9.4-16.8l5.4-18.7
		L227.7,202.2z"/>
	<path id="US-CO" class="st0" d="M524.3,297.3l-2.2,34.9l-2.2,33.2l-17.5-1.3l-21.7-1.9l-30.8-3.1l-28.5-3.4l-28.2-3.8L406,262
		l17.1,2.4l17.1,2.2l34.2,3.8l17.1,1.6l34.2,2.7l-1.5,22L524.3,297.3z"/>
	<path id="US-CT" class="st0" d="M1034.8,200.9l3.4,11.9l-0.1,3.5l-7,3.1l-9.3,3.6l-11.7,8.5l-1.3-2.5l3.1-3.1l-1.8-1.5l-3.3-17.1
		l12.7-2.8L1034.8,200.9z"/>
	<path id="US-DC" class="st0" d="M963.7,293.4l-0.2-1.3l-1.9-1.6l1.2-1.4l2.7,1.8L963.7,293.4z"/>
	<path id="US-DE" class="st0" d="M986.9,264.9l-2,2.9l1.4,4.2l6.3,11.1l7.3,10.2l-11.6,2.7l-7.6-27.9l0.9-2l1.3-1.3L986.9,264.9z"/>
	<path id="US-FL" class="st0" d="M915.2,488.8l5.2,16.1l10.6,17.3l11.9,15.5l1.5,8.8l12.9,21.8l4.5,20.2L961,609l-8.1,5.5l-10.8-1.1
		l-4.9-9.5l-8.7-4l-14-18L902,566.8l-3.5-10.7l1.4-14.4l-6.5-12.1l-14.9-11.8l-12.5-7.1L845,523.1l-5.3-5.8l-19.8-8.2l-22,5.1
		l1.1-3.3l0.6-4.6l-5-5.1l0.1-1.8l11.1-2.4l39.9-4.5l3.7,5.8l19.9-1.5l32.3-1.2l2.1,3.7l2.2-2.4l-1.2-7.9l2.2-1.1l4.1,1.1
		L915.2,488.8z"/>
	<path id="US-GA" class="st0" d="M870.5,397.6l-1.8,2.2l-2.4,4.7l5.5,3l3.4,0.9l4.5,6.6l2.8,3.7l7.3,4.4l1.7,2.6l5,3l3,5l6.8,3.6
		l2.2,4.9l1.5,2.3l-0.4,1.8l4,1.9l2.6,3.9l0.7,4.3l1.9,0.5l3.5,0.6l-5.7,17.9l-1.6,13.5l-4.2,0.2l-4.1-1.1l-2.2,1.1l1.2,7.9
		l-2.2,2.4l-2.1-3.7l-32.3,1.2l-19.9,1.5l-3.7-5.8l-1.3-2.6l-1.6-2.8l0.1-3.8v-4.1l-1.6-4.1l0.2-7.3l2.7-4.4l-2.2-3.8l-3.6-6.8
		l-7.2-21.9l-8.1-27.5l14.3-1.5l9.9-1.5L870.5,397.6z"/>
	<path id="US-HI" class="st0" d="M443.4,612.1l-3,0.1l-1.8-2.4l-0.9-4.3l2.2-0.8l3.3,0.5l3.3,2.9l-0.2,1.6L443.4,612.1z
		 M460.9,640.4l-0.7,3.5l-3-1.4l-0.6-2.4l-1-0.5l-0.5-0.1l-1.9-1.6l1-6.3l2.5,1.6l3.8,0.3l-1,5.3L460.9,640.4z M472.4,657.6
		l-3.5-0.2l-5.9-6.2l2.1-1.4L472.4,657.6z M472.8,661.1l0.4,3.5l3.3,1.6l2,5.7l-0.9,1.3l-2.4,0l-5.2-3l1.4-4.1l-1.8-2l0.4-3.1
		l1.6-0.7L472.8,661.1z M464.4,705.7l-3.3,1.3l-2.7-4.9l3.9-5.3l2.2-8l7-1.6l0.8-3.4l1.5-1.3l0.9,0.2L481,695l0.3,3.3l-1.3,2.4
		l1,1.2l-0.5,1.9l0.8,3.8l-6.6,0.4l-4.8-2.1L464.4,705.7z"/>
	<path id="US-IA" class="st0" d="M708.7,219.3l0.3,1.2l2.4,3.5l-1.4,1.8l0.3,4.8l0.8,2l1.3,3.6l5.6,1.9l1.8,3.4l1.1,1.7l2.1,1l1,2.4
		l2.8,1.6l1.9,1.9l-0.5,6.1l-2.8,5.3l-1,1.7l-3.8,1.5l-5.8,1.4l-1.3,4l2.2,1.6l0.9,3.5l-2,4.1l-1,3.5l-4.2,3.6l-0.1,4.2l-2.5-1.8
		l-3.5-3.5l-18.9,1.3l-19.9,0.7l-15.5,0.3l-15.5,0.1l-1.1-4.1l0.5-4.1l-0.4-3.9l-1.8-6.6l-1.1-2.7l-1.2-0.7l-0.1-5.2l-1.1-3.8
		l-3.1-4.3l0-1.9l-1.1-3.8l-0.7-2.3l0-2.1l-2.7-2.5l1.4-3.7l0.9-3.6l0.4-2.5l-2.1-3l0.1-5.6h2.2l18.1,0l22.5-0.6l24.2-0.9
		L708.7,219.3z"/>
	<path id="US-ID" class="st0" d="M384.7,178.1l0.5,0.5l-9.3,55.8l-49.8-9l-49.5-11l9.6-39.7l2.9-6l-0.6-3.2l-2.6-2.2l0.9-3.5
		l3.4-4.5l4.4-3.6l3.9-6.7l3.4-5.2l2.2-2.5l-0.1-3.6l-2.2-2.4l-2.7-5.1l1.1-3.9l-0.6-3.7l6.9-31.2l6.7-28.6l14.6,3.3l-4.1,23.9
		l2.7,6.8l-0.9,4l2,4.2l3.1,2.9l1.8,4l2.8,7.8l3.3,4.1l4.6,1.2l-2.7,4.6l-2.7,5.6l0.1,6l-2.1,1.1l-1,5.8l2.4,2.8l3.6-2l2.2-2.8
		l1.8,1l1.3,3.4l0.4,7.4l2.3,3.4l-0.1,6.1l0.6,1.8l3.1,1.2l1.4,3.6l1.7,6.4l3.5-2.6l5.1,1.8l0.8-2.1l8.8,3l3.8-0.1l3.1-4.1l1.6,0.9
		l1,3.4L384.7,178.1z"/>
	<path id="US-IL" class="st0" d="M767.4,238L767.4,238l0.7,5.9l5.7,11.5l0,0l0,0l2.4,26.2l2.4,26.1l-1.4,6.5l1.6,1.5l1.3,3.8l0.2,3
		l-1.4,1.5l-0.9,3.9l-3.2,5.3l-2,6.3l-0.2,4.6l0.3,1.7L771,349l1.7,2l-3,1.9l-3.9,2.2l1.1,4.9l-2.2,2.1l-4.5-1.7l-4.9-0.9l-1.1,2.3
		l1,3.4l-3.5-3.3l-1.9,0.7l-2.7-5.4l0.4-3.4l-1.7-5.4l-1.9-0.5l-5-4.6l-2,0l-3.8-3l-2.7-3.2l0.9-4.1l1.4-3.4l0.7-4.2l-3.6-3.4
		l-3.3,1.7l-2.1-0.8l-0.5-3.8l-1.7-4.2l-1.7-0.9l-4.2-2.8l-3.5-3.7l-3.1-4.5l-1.9-6.7l1.2-5.7l0.1-4.2l4.2-3.6l1-3.5l2-4.1l-0.9-3.5
		l-2.2-1.6l1.3-4l5.8-1.4l3.8-1.5l1-1.7l2.8-5.3l0.5-6.1l-1.9-1.9l-2.8-1.6l-1-2.4l-2.1-1l-1.1-1.7l17.1-1.1l17.5-1.3L767.4,238
		L767.4,238L767.4,238z"/>
	<path id="US-IN" class="st0" d="M819.8,251.1l2.5,20.4l2.6,21.9l1.8,15.6l-0.9,1.2l2,4.4l-0.6,1.8l-3,0.4l-2.5,2.3l-4.3-0.3
		l0.1,4.4l-2.3,1.9l-1.9,4.1l-2.4,1l-3.2,7.1l-3.8-1.5l-1.4-2.6l-2.6,4.8l-1.7,2.7l-4.1-2.3l-3.9,2.6l-1.1,2.3l-5.8-2.9l-3.6,2.8
		l-4.8-1.3l0,2.5l-2.4-0.4l0.2-4.6l2-6.3l3.2-5.3l0.9-3.9l1.4-1.5l-0.2-3l-1.3-3.8l-1.6-1.5l1.4-6.5l-2.4-26.1l-2.4-26.2l0,0
		l1.7,1.4l5.8-0.7l4.3-2.9l0,0l18.2-1.8l15.9-2L819.8,251.1z"/>
	<path id="US-KS" class="st0" d="M654.8,368.7l-16,0.2l-32.7-0.1l-32.8-0.8l-18.2-0.7l-18.2-0.9l-17.1-1l2.2-33.2l2.2-34.9h0
		l30.4,1.7l22.7,0.9l40.1,0.8h24l4.2,3l2.3-0.1l0.5,3.3l-2.4,4.2l1.4,2.1l2.2,4.7l4.7,2.1l0.2,24.3L654.8,368.7z"/>
	<path id="US-KY" class="st0" d="M868.1,319.2l0.6,2.1l0.5,4.7l2.6,3.2l1.4,3.3l3,2.5l2.2,2.4l3.5-0.1l-6.1,7.8l-5.2,3.5l-0.2,1.9
		L869,353l-4.5,3.4l-1.3,2.4l-3.5,1.9l-5,2l-12.2,2.4l-16.1,1L821,367l-10.5,0.5l-10.7,1l-9.8,0.9l-11.3,1.7l-0.7-1l-3.6,0.4
		l0.4,3.5l-26.1,1.9l3.9-2.7l2.8-2.1l-0.6-3.5l0.4-2.3l-1-3.4l1.1-2.3l4.9,0.9l4.5,1.7l2.2-2.1l-1.1-4.9l3.9-2.2l3-1.9l-1.7-2
		l1.8-3.3l-0.3-1.7l2.4,0.4l0-2.5l4.8,1.3l3.6-2.8l5.8,2.9l1.1-2.3l3.9-2.6l4.1,2.3l1.7-2.7l2.6-4.8l1.4,2.6l3.8,1.5l3.2-7.1l2.4-1
		l1.9-4.1l2.3-1.9l-0.1-4.4l4.3,0.3l2.5-2.3l3-0.4l0.6-1.8l-2-4.4l0.9-1.2l6.1-0.2l3.4,1.8l5.3,4.5l3.9,1.1l3,1.4l4.1-1.2l3.3,0.9
		l3.6-1.8l3.3-0.9l1.9,2.9L868.1,319.2z"/>
	<path id="US-LA" class="st0" d="M722.6,457.1l1.4,1.2l-1.6,3.4l3,4.5l-0.6,2.9l2.7,3.8l-2.6,2.5l-0.7,4.4l-3.6,3.8l-1.5,4.9
		l-1.5,5.6l-2.3,2.7l1.1,5.7L734,502l18.5-1.1l-0.3,3.8l-1.1,3.8l1.5,2.8l2.8,2.5l1,3.7l0.5,2.2l-1.6,9.7l7.2,13.3l-27.6,2.7
		l-17.3-3.8l-11.8-4.2l-15.3-2.4l-17.4-0.2l-1.7-3l2-3.4l2.9-3.1l-0.1-4.6l-1.5-1.5l1.6-5.5l1.2-2.5l1.7-8.4l-1.8-3.1l-2.4-5.1
		l-1.8-5.2l-1.2-3.5l-3.2-2.5l-1.7-24.4l18.5-0.5l20.9-1.6L722.6,457.1z"/>
	<path id="US-MA" class="st0" d="M1045.6,177.8l3.1,11.6l8.7,10l6.9-1.4l-4-7.5l6.3,3.4l0.5,6.6l-10,6.7l-8,1.8l-1.4-3.2l-3.3-1.8
		l-2.8-5.4l-6.8,2.1l-15.4,3.6l-12.7,2.8l-0.3-16.1l13.5-3.1l19.6-5.1l1.1-2.6l3-2.4L1045.6,177.8z"/>
	<path id="US-MD" class="st0" d="M980.8,267.9l7.6,27.9l11.6-2.7l1.4,1.8l-5,9.1l-4,1.3l-1,1.8l-11.3-8.6l-4.4-16.4l-1.1,8.4
		l4.4,19.1l-11.9-4.3l-1.7-2.9l-2.6,1.6l-2.6-0.7l1-5.4l2.5-2.7l-0.1-1.9l1.8-2.5l-2.7-1.8l-1.2,1.4l-3.7-1.8L954,288l0.8-2.6
		l-2.6-1.2l-2.7-0.2l-1.9-2.6l-2.7-2.8l-5.7-0.7l-3,2.3l-1.6,2l-5.3,0.1l-1.9,2.8l-3.3,1.5l-2.5,3.1l-2.3,2.5l-1.9-11.4l16-3
		l5.4-1.1l12.2-2.5l14.7-3L980.8,267.9z"/>
	<path id="US-ME" class="st0" d="M1046.9,172.1l-1.6,0.7l-1.6-2.8l-3.9-2.4l0-2.3l-13.3-39.3l5.3-5.6l2.6-11.6l-0.4-18.5l6.5-20
		l6.7,4.3l8.8-6.8l8.6,4.2l9.5,29.7l14,9l3.2,9.2l-12.9,11.8l-13.6,9.8l-14,18.5L1046.9,172.1z"/>
	<path id="US-MI" class="st0" d="M810.3,140.6L810.3,140.6l5.3,0l0,0l-1.7,2.5l9,8l-13.7,3.9l-0.5,0l-12.7-0.9l-11.9,5.9l-10.6,3.2
		l-8,15.4l-0.4-0.1l0,0l-2.4-2.5l0.8-3.8l-3.5,0.1l0.4-3.8l0.8-1.9l-1.7-3.1l-3.9-1.1l-1.2-3.7l-3.1,0l-4.5,0.3l-9.5-3.4l-14.1-3.1
		l-1.5-4l-2.5-0.6l0-0.1l-1,0.5l-0.2-0.1l0.1,0.1l11.8-6.6l12-8.4l13.1-8.7l-4,12.5l9.1,2.1l11.9,7.6l13.4-6.5l15.2-3.8l4.1,6
		l4.9,0.3L810.3,140.6z M855.9,215.9L855.9,215.9l-0.4,0.4l-6,13.5l-2.5,8.4l0,0l-4.5,9.5l0,0l-6.3,1.1l-7.7,1l-8.6,1.3l-0.2-1.8
		l-15.9,2l-18.2,1.8l0,0l0,0l3.1-3.5l5.7-11.7l-1.2-15l-7-13.4l-0.2-9.7l3.1-11.6l3.2-8.1l5.8-6.2l2.4,7.4l1.5-11.5l3.2-2.7l1.2-8.9
		l14.1,2.8l13,7.2l2.8,10.1l0,10.5l-7.7,10.3l1.6,5.6l3.3-0.2l8.7-11.3l6.3,1.4l4.9,12.6l2.2,9.1L855.9,215.9z"/>
	<path id="US-MN" class="st0" d="M728.4,114.8L728.4,114.8l-15.3,8.6l-10.5,9.8l-10.2,10.2l0.1,3.4l-4.1,1.4l0.7,12.8h-0.5l-3.8,2.7
		l-3.3,2.3l-2.1,4.3l3.5,4.2l-1,5.8l0.2,6.2l-0.3,5l4.9,4.2l2,0.1l5.4,3l1.9,1.5l1.3,2.4l4.3,3.7l5.7,3.1l0.6,1.9l0.3,5.5l0.6,2.5
		l-21.7,0.6l-24.2,0.9l-22.5,0.6l-18.1,0l0.3-21.3l-1.8-21.9l-2.8-1.8l-1.6-3.5l0.9-3.1l3.6-2.5l0.3-3.3l0-4.2l-1-3.5l-1.3-3.7
		l-0.7-4.7l-0.2-5.2l-0.5-1.3l-0.6-6.7l0-3.1l-0.3-2.8l-0.7-4.7l-1.8-4.7l-1.7-4.2l-0.2-4.2l-0.1-4.5l0.6-2.9l0.1-2.7l-1.4-3.3
		l-0.2-2.3l31.4,0.1l0-8.9l5.1-0.2l2.9,12.6l4.8,3.8l10.7,1.2l15.7,3.2l15.2,6.5l12.3-3.7L728.4,114.8L728.4,114.8z"/>
	<path id="US-MO" class="st0" d="M709,290.5l-1.2,5.7l1.9,6.7l3.1,4.5l3.5,3.7l4.2,2.8l1.7,0.9l1.7,4.2l0.5,3.8l2.1,0.8l3.3-1.7
		l3.6,3.4l-0.7,4.2l-1.4,3.4l-0.9,4.1l2.7,3.2l3.8,3l2,0l5,4.6l1.9,0.5l1.7,5.4l-0.4,3.4l2.7,5.4l1.9-0.7l3.5,3.3l-0.4,2.3l0.6,3.5
		l-2.8,2.1l-3.9,2.7l-0.3,2.2l-0.9,3.3l-1,5.6l-12,0.8l1-2.3l1.9-2.6l1.9-2.6l-1.7-2.7l-20.9-0.2l-19.3,0.9l-20.2,0.6l-22.3,0.2
		l0-10.4h-0.1l-0.2-24.2l-0.2-24.3l-4.7-2.1l-2.2-4.7l-1.4-2.1l2.4-4.2l-0.5-3.3l-2.3,0.1l-4.2-3l-2.3-4.8l-2.7-2.9l-2.9-3.6
		l-0.4-1.9l15.5-0.1l15.5-0.3l19.9-0.7l18.9-1.3l3.5,3.5L709,290.5z"/>
	<path id="US-MS" class="st0" d="M776,408l1.7,4.3l-0.8,29.6l-0.3,36.6l3.5,34.7l-11.7,6.1l-11.4,0.5l-0.5-2.2l-1-3.7l-2.8-2.5
		l-1.5-2.8l1.1-3.8l0.3-3.8L734,502l-17.4,0.2l-1.1-5.7l2.3-2.7l1.5-5.6l1.5-4.9l3.6-3.8l0.7-4.4l2.6-2.5l-2.7-3.8l0.6-2.9l-3-4.5
		l1.6-3.4l-1.4-1.2l0.7-4.5l-2.5-5.8l0.2-5.4l3.7-8.1l1.7-4.8l3.2-3.3l2.1-1.4l2.1-6.2l-0.1-3.3l3.2-1.9l0.2-1.8l18.4-1.3L776,408z"
		/>
	<path id="US-MT" class="st0" d="M501.8,159.7l-2.7,20.8l-26.8-2.9l-28.9-3.3l-24.9-3.6l-31.5-4.8l-1.8,11.4l-0.4,0.8l-1.5-1.5
		l-1-3.4l-1.6-0.9l-3.1,4.1l-3.8,0.1l-8.8-3l-0.8,2.1l-5.1-1.8l-3.5,2.6l-1.7-6.4l-1.4-3.6l-3.1-1.2l-0.6-1.8l0.1-6.1l-2.3-3.4
		l-0.4-7.4l-1.3-3.4l-1.8-1l-2.2,2.8l-3.6,2l-2.4-2.8l1-5.8l2.1-1.1l-0.1-6l2.7-5.6l2.7-4.6l-4.6-1.2l-3.3-4.1l-2.8-7.8l-1.8-4
		l-3.1-2.9l-2-4.2l0.9-4l-2.7-6.8l4.1-23.9l44.4,9.2l44.7,7.7l45,6.2l45.1,4.8l-3.5,42.1L501.8,159.7z"/>
	<path id="US-NC" class="st0" d="M995.2,338.4l7.5,21.6l-7.9,19l-16.2,12.4l-13.6,14.4l-6.3,2.6L934,391.2l-20.5,3.4l-0.4-2.6
		l-3.5-3.3l-1.6,1.8l-0.5-2l-8.8,0.4l-17,2.5l-9.4,5.3l-1.8,0.9l-23.1,3l-0.2-4.8l3.7-1.9l1-2.6l2.2-3.1l3.7-1.1l4.2-1.6l3.9-2.5
		l1.5-2.2l3.2-2.3l-0.3-1.6l4.2-3.7l1.8,1.8l6.1-5.2l3.2,0l2.2-4.2l3.5-1.5l-0.7-3.2l0-2.9l30.6-4.1l35.9-6.7l18.9-4.1L995.2,338.4z
		"/>
	<path id="US-ND" class="st0" d="M611.1,95.3l0.2,2.3l1.4,3.3l-0.1,2.7l-0.6,2.9l0.1,4.5l0.2,4.2l1.7,4.2l1.8,4.7l0.7,4.7l0.3,2.8
		l0,3.1l0.6,6.7l0.5,1.3l0.2,5.2l0.7,4.7l1.3,3.7l1,3.5l0,4.2l-30.3,0.8l-25.9-1l-32.7-1.7l-30.4-2.3l1.7-27.8l3.5-42.1l52.4,3.7
		L611.1,95.3z"/>
	<path id="US-NE" class="st0" d="M622.1,244.3l0.7,2.3l1.1,3.8l0,1.9l3.1,4.3l1.1,3.8l0.1,5.2l1.2,0.7l1.1,2.7l1.8,6.6l0.4,3.9
		l-0.5,4.1l1.1,4.1l0.4,1.9l2.9,3.6l2.7,2.9l2.3,4.8h-24l-40.1-0.8l-22.7-0.9l-30.4-1.7h0l0-0.7l1.5-22l-34.2-2.7l3.9-45.2l32.5,2.5
		l25,1.5l33.4,1.3l4.2,3l6.1,2l1.5-1l4,0.2l6-0.1l4.3,3l4.6,1.9l0.8,1.9l1.4,1.1L622.1,244.3z"/>
	<path id="US-NH" class="st0" d="M1046.9,172.1l-1.3,5.7l-2,0.1l-3,2.4l-1.1,2.6l-19.6,5.1l-1.9-1.9l0.5-3.2l-1.1-5.9l0.1-1.5
		l-0.8-5.3l0.6-4.9l0.8-2.3l0.5-5.7l-0.6-3.6l0-2.3l2.8-1.9l2.8-3.5l-0.1-2.9l-2-2.8l0.2-6.5l0,0l0-5.9l5-2.1l13.3,39.3l0,2.3
		l3.9,2.4l1.6,2.8L1046.9,172.1z"/>
	<path id="US-NJ" class="st0" d="M1006,233.1l-3.1,12.1l4.5-0.1l1,16.6l-8.4,20l-2.6-5.4l-4-0.3l-5.5-4.8l-1.5,0.6l-1.4-4.2l2-2.9
		l3-2.8l0.9-1.7l3.3-3.9l1.6-2.9l-6.7-4.5l-0.8-2.3l-2-0.3l-0.8-3.6l1.3-3.2l-1.6-2.7l2.2-2.6l1.8-5.6l1.8-1.5L1006,233.1z"/>
	<path id="US-NM" class="st0" d="M502.4,364.1l-0.8,11.2l-4.6,59.3l-3.3,42.7l-18-1.5l-34.8-3.4l-17.4-2l0,2l1.8,3.9l-33.3-4.2
		l-1.5,9.3l-15.6-2.1l18.4-127.4l28.2,3.8l28.5,3.4l30.8,3.1L502.4,364.1z"/>
	<path id="US-NV" class="st0" d="M326.1,225.4l-22.3,111.2l-3.5,17.9l-0.9,0.6l-1.9,3.1l-2.3-1.4l-3.1-2.3l-3.8-0.8l-1.8,2.5l1,3.4
		l-1,4.8l-0.5,4.4l0,4.5l-2,4.1l-24.2-34.8L234.9,306L210,267.9l17.8-65.6l48.8,12.2l0-0.1L326.1,225.4z"/>
	<path id="US-NY" class="st0" d="M1006.5,191.2l0.3,16.1l3.3,17.1l1.8,1.5l-3.1,3.1l1.3,2.5l22.8-9.1l6,2.8l-21.6,12.7l-10.7,2.7
		l-0.7-7.6l-14.9-5.6l-3.1-0.9l-3.2-0.9l-1.8-3l-0.1-2.5l-2.4-1.5l-4.4-2.6l-22.5,5l-24.2,5l-26,4.9l-1.1-6.1l11.7-15.9l-0.7-2.1
		l0-0.1l-3.5-6l8-4.4l13-1.7l13.7-0.9l10.6-10l-2.9-8.4l-2.6-3.1l-0.1,0l0,0l0.1,0l13-18.9l6.2-5.8l23.8-6l0.8,4.6l0.1,3l2.1,6.5
		l1.7,3.1l-0.4,5l2.9,5.4l-0.2,3.5l0.5,0.8l2.3-0.4L1006.5,191.2z"/>
	<path id="US-OH" class="st0" d="M896,263.6l-2.2,1.5l1.2,2.7l0.1,5.3l-0.8,6.1l-0.9,5.1l0.1,2.4l-3.9,5.9l-1.8,1.4l-2.2,1l-2.2-0.2
		l-3.3,4.5l-0.1,4.2l-0.2,2.3l-1.4,1.1l-0.6-2.5l-2.5-0.2l-1.7,5.2l0.5,5l-1.8,3.5l-4.3,1.2l-3.6-1.7l-1.9-2.9l-3.3,0.9l-3.6,1.8
		l-3.3-0.9l-4.1,1.2l-3-1.4l-3.9-1.1l-5.3-4.5l-3.4-1.8l-6.1,0.2l-1.8-15.6l-2.6-21.9l-2.5-20.4l8.6-1.3l7.7-1l6.3-1.1l0,0v0
		l11.1,3.2l8.6-0.1l11.8-4.9l8.9-7.8l8.1-4.5L896,263.6z"/>
	<path id="US-OK" class="st0" d="M654.8,379.1l4,23.9l0,22.1l-0.2,19.9l-8.2-4.3l-5.3-2.4l-4.3,1.6l-6.7-0.2l-4,0l-3.2,1.8l-3.2,0.9
		l-2.8-1.1l-6.3,1.2l-2.8-3.8l-3,3.2l-5.2-1.5l-5.2-3.6l-5.7,2.2l-2.4-5.5l-8.8,0.3l-5.6-1.4l-6.3-1.8l-2.6-4.8l-5,1.3l-3-2
		l-4.4-2.6l1-21.7l1-22.2l-18.3-0.9l-18.3-1.1l-18.3-1.3l0.8-11.2l17.5,1.3l17.1,1l18.2,0.9l18.2,0.7l32.8,0.8l32.7,0.1l16-0.2h0.1
		L654.8,379.1z"/>
	<path id="US-OR" class="st0" d="M299.2,126.1l2.7,5.1l2.2,2.4l0.1,3.6l-2.2,2.5l-3.4,5.2l-3.9,6.7l-4.4,3.6l-3.4,4.5l-0.9,3.5
		l2.6,2.2l0.6,3.2l-2.9,6l-9.6,39.7l0,0.1l-48.8-12.2l-68.5-20.4l-1.3-13.8l12.3-21.7l8.9-24.1l13.2-32l3.2,0.7l4.6,1.6l3.1,3.1
		l4,2.6l1.6,5l-0.7,3.8l0.2,3.4l3.3,1.9l3.8,1.1l6.6-0.6l3.7,0.3l5.2,2.5l2.1,1.8l3.4,0.1l4-0.8l6.9,2.2l6.4-0.9l3.5-1l3.7,2
		l6.1-0.9L299.2,126.1z"/>
	<path id="US-PA" class="st0" d="M991.1,227.5l-1.8,1.5l-1.8,5.6l-2.2,2.6l1.6,2.7l-1.3,3.2l0.8,3.6l2,0.3l0.8,2.3l6.7,4.5l-1.6,2.9
		l-3.3,3.9L990,262l-3,2.8l-3.9-0.3l-1.3,1.3l-0.9,2l-15.1,3.4l-14.7,3l-12.2,2.5l-5.4,1.1l-16,3l-18,3.2l-3.5-20.6l-5.1-30l0,0
		l11.4-8.7l0,0l1.1,6.1l26-4.9l24.2-5l22.5-5l4.4,2.6l2.4,1.5l0.1,2.5l1.8,3l3.2,0.9L991.1,227.5z"/>
	<path id="US-RI" class="st0" d="M1049.1,209.2l-11,7.2l0.1-3.5l-3.4-11.9l6.8-2.1l2.8,5.4l3.3,1.8L1049.1,209.2z"/>
	<path id="US-SC" class="st0" d="M958.8,408.5l-4.3,17.1l-13.9,16.9l-18,14.9l-3.5-0.6l-1.9-0.5l-0.7-4.3l-2.6-3.9l-4-1.9l0.4-1.8
		l-1.5-2.3l-2.2-4.9l-6.8-3.6l-3-5l-5-3L890,423l-7.3-4.4l-2.8-3.7l-4.5-6.6l-3.4-0.9l-5.5-3l2.4-4.7l1.8-2.2l1.8-0.9l9.4-5.3
		l17-2.5l8.8-0.4l0.5,2l1.6-1.8l3.5,3.3l0.4,2.6l20.5-3.4L958.8,408.5z"/>
	<path id="US-SD" class="st0" d="M622.2,221.3H620l-0.1,5.6l2.1,3l-0.4,2.5l-0.9,3.6l-1.4,3.7l2.7,2.5l0,2.1l-2.8-0.3l-1.4-1.1
		L617,241l-4.6-1.9l-4.3-3l-6,0.1l-4-0.2l-1.5,1l-6.1-2l-4.2-3l-33.4-1.3l-25-1.5l-32.5-2.5l3.7-46.3l2.7-20.8l30.4,2.3l32.7,1.7
		l25.9,1l30.3-0.8l-0.3,3.3l-3.6,2.5l-0.9,3.1l1.6,3.5l2.8,1.8l1.8,21.9L622.2,221.3z"/>
	<path id="US-TN" class="st0" d="M854.5,362.7l27-3.1l9.1-1.9l0,2.9l0.7,3.2l-3.5,1.5l-2.2,4.2l-3.2,0l-6.1,5.2l-1.8-1.8l-4.2,3.7
		l0.3,1.6l-3.2,2.3l-1.5,2.2l-3.9,2.5l-4.2,1.6l-3.7,1.1l-2.2,3.1l-1,2.6l-3.7,1.9l0.2,4.8l-9.9,1.5l-14.3,1.5l-23.9,2.3L776,408
		l-20.5,1.2l-18.4,1.3l2-2.2l-0.6-6.6l2.7-3.2l0.5-3.8l3.1-2.4l1.7-3.3l0.1-1.9l1-5.6l0.9-3.3l0.3-2.2l26.1-1.9l-0.4-3.5l3.6-0.4
		l0.7,1l11.3-1.7l9.8-0.9l10.7-1L821,367l5.2-0.9l16.1-1L854.5,362.7z"/>
	<path id="US-TX" class="st0" d="M658.6,445.1l1,1.5l3.7-0.4h4.4l-0.8,12.9l1.7,24.4l3.2,2.5l1.2,3.5l1.8,5.2l2.4,5.1l1.8,3.1
		l-1.7,8.4l-1.2,2.5l-1.6,5.5l1.5,1.5l0.1,4.6l-2.9,3.1l-2,3.4l1.7,3l-17,5.1l-18.2,17.2l-20.2,9.9L606.3,578l-4.9,10.3l-0.4,15.9
		l0.9,11.1l3.9,8l-8.2,0.6l-14.8-5.4l-16.1-7.7l-5.5-11.1l-3.9-16.3l-11.5-13.6l-6.4-13.8l-9.3-16.2l-13.6-10l-16.4-0.7l-14,17.1
		l-16.1-8.2l-9.7-7.8l-3.8-13l-5.4-12.5l-10.6-11.2l-9.2-8.3l-6.2-8.9l-1.8-3.9l0-2l17.4,2l34.8,3.4l18,1.5l3.3-42.7l4.6-59.3
		l18.3,1.3l18.3,1.1l18.3,0.9l-1,22.2l-1,21.7l4.4,2.6l3,2l5-1.3l2.6,4.8l6.3,1.8l5.6,1.4l8.8-0.3l2.4,5.5l5.7-2.2l5.2,3.6l5.2,1.5
		l3-3.2l2.8,3.8l6.3-1.2l2.8,1.1l3.2-0.9l3.2-1.8l4,0l6.7,0.2l4.3-1.6l5.3,2.4L658.6,445.1z"/>
	<path id="US-UT" class="st0" d="M406,262l-12.8,89.9l-26.1-4.2l-34.4-6l-28.9-5.2l22.3-111.2l49.8,9l-3.7,21.8L406,262z"/>
	<path id="US-VA" class="st0" d="M949.5,284l2.7,0.2l2.6,1.2L954,288l3.9,0.6l3.8,1.8l1.8,1.6l0.2,1.3l0.1,1.9l-2.5,2.7l-1,5.4
		l2.6,0.7l2.6-1.6l1.7,2.9l13.7,10l5.7,9.8l0.3,0.6l8.2,12.6l-19.2,4.3l-18.9,4.1l-35.9,6.7l-30.6,4.2l-9.1,1.9l-27,3.1l5.1-2
		l3.5-1.9l1.3-2.4l4.5-3.4l1.6-2.6l0.2-1.9l5.2-3.5l6.1-7.8l1.4,3.7l2.3,1.7l3,1.4l5.2-3.6l2.4,1.2l6.4-3l0-2.1l2.2,0.5l1.9-2
		l2.5-0.1l2.5-2.2l0-2.1l-0.8-2.5l1.7-4.3l2.9-3.5l0.3-3.5l2.3-4.5l0.8-5.2l2.6,1.3l2.9,1.1l2.4-1.3l0.5-2.2l1.2-3.1l1.3-3.5
		l1.4,0.7l2-3.4l2.8-3.6l1.7-2.6l0.2-6.2l10,4.3L949.5,284z M988.8,323.5l1.8,0.5l5.9-19.9l-4,1.3l-1,1.8L988.8,323.5z"/>
	<path id="US-VT" class="st0" d="M1020,188.1l-13.5,3.1l-4-18.4l-2.3,0.4l-0.5-0.8l0.2-3.5l-2.9-5.4l0.4-5l-1.7-3.1l-2.1-6.5l-0.1-3
		l-0.8-4.6l28.8-7.7l0,0l-0.2,6.5l2,2.8l0.1,2.9l-2.8,3.5l-2.8,1.9l0,2.3l0.6,3.6l-0.5,5.7l-0.8,2.3l-0.6,4.9l0.8,5.3l-0.1,1.5
		l1.1,5.9l-0.5,3.2L1020,188.1z"/>
	<path id="US-WA" class="st0" d="M313.2,58.7l-6.7,28.6l-6.9,31.2l0.6,3.7l-1.1,3.9l-32-7.7l-6.1,0.9l-3.7-2l-3.5,1l-6.4,0.9
		l-6.9-2.2l-4,0.8l-3.4-0.1l-2.1-1.8l-5.2-2.5l-3.7-0.3l-6.6,0.6l-3.8-1.1l-3.3-1.9l-0.2-3.4l0.7-3.8l-1.6-5l-4-2.6l-3.1-3.1
		l-4.6-1.6l-3.2-0.7l1.7-19.4l4.3-21.8l19.3,10.5l1.4,19.2l5.4-4.7l3-18.8L226.2,35l43.3,12.6L313.2,58.7z"/>
	<path id="US-WI" class="st0" d="M718,148.3l0.1,0.1l0.9-0.5l0,0.1l2.5,0.6l1.5,4l14.1,3.1l9.5,3.4l4.5-0.3l3.1,0l1.2,3.7l3.9,1.1
		l1.7,3.1l-0.8,1.9l-0.4,3.8l3.5-0.1l-0.8,3.8l2.4,2.5l0,0l0.4,0.1l-0.1,0.2l-5.6,8.8l2.4,2.5l10.5-15.8l2.4-0.3l-6.7,18.3
		l-2.2,16.1l-2,13.1l3.1,10.9l0.1,5.6h-0.1l0,0.1l-12.9,0.9l-17.5,1.3l-17.1,1.1L718,238l-5.6-1.9l-1.3-3.6l-0.8-2l-0.3-4.8l1.4-1.8
		l-2.4-3.5l-0.3-1.2l-0.6-2.5l-0.3-5.5l-0.6-1.9l-5.7-3.1l-4.3-3.7l-1.3-2.4l-1.9-1.5l-5.4-3l-2-0.1l-4.9-4.2l0.3-5l-0.2-6.2l1-5.8
		l-3.5-4.2l2.1-4.3l3.3-2.3l3.8-2.7h0.5l-0.7-12.8l4.1-1.4l0,0l15.5-5.6L718,148.3z"/>
	<path id="US-WV" class="st0" d="M917.5,281l1.9,11.4l2.3-2.5l2.5-3.1l3.3-1.5l1.9-2.8l5.3-0.1l1.6-2l3-2.3l5.7,0.7l2.7,2.8l1.9,2.6
		l-1.1,4.6l-10-4.3l-0.2,6.2l-1.7,2.6l-2.8,3.6l-2,3.4l-1.4-0.7l-1.3,3.5l-1.2,3.1l-0.5,2.2l-2.3,1.3l-2.9-1.1l-2.6-1.3l-0.8,5.2
		l-2.3,4.5l-0.3,3.5l-2.9,3.5l-1.7,4.3l0.8,2.6l0,2.1l-2.5,2.2l-2.5,0.1l-1.9,2l-2.1-0.5l-0.1,2.1l-6.4,3l-2.4-1.2l-5.2,3.6l-3-1.4
		l-2.3-1.7l-1.4-3.7l-3.5,0.1l-2.2-2.4l-3-2.5l-1.4-3.3l-2.6-3.2l-0.5-4.7l-0.6-2.1l4.3-1.2l1.8-3.5l-0.5-5l1.7-5.2l2.5,0.2l0.6,2.5
		l1.4-1.1l0.2-2.3l0.1-4.2l3.3-4.5l2.2,0.2l2.2-1l1.8-1.4l3.9-5.9l-0.1-2.4l0.9-5.1l0.8-6.1l-0.1-5.3l-1.2-2.7l2.2-1.5l3.5,20.6
		L917.5,281z"/>
	<path id="US-WY" class="st0" d="M499.2,180.4l-3.7,46.3l-3.9,45.2l-17.1-1.6l-34.2-3.8l-17.1-2.2L406,262l-33.9-5.9l3.7-21.8
		l9.3-55.8l-0.5-0.5l0.4-0.8l1.8-11.4l31.5,4.8l24.9,3.6l28.9,3.3L499.2,180.4z"/>
</g>
<g transform="translate(20, 20)">
	<g transform="translate(0,0) scale(1)">
		<g>
			<g transform="">
				<g transform="translate(347.47092549118656, 276.1587140300568)">
					<ellipse class="st1" cx="-82.1" cy="57.1" rx="2.3" ry="2.3"/>
					<text transform="matrix(0.9984 0 0 1 -127.4987 51.3901)" class="st2 st3 st4">#50 Las Vegas</text>
					<text transform="matrix(0.9984 0 0 1 -127.4987 51.3901)" class="st2 st3 st4">#50 Las Vegas</text>
				</g>
				<g transform="translate(898.0872159784175, 148.96534997321987)">
					<ellipse class="st1" cx="-3.3" cy="38.7" rx="2.6" ry="2.6"/>
					<text transform="matrix(0.9984 0 0 1 -37.8792 32.6177)" class="st2 st3 st4">#49 Buffalo</text>
					<text transform="matrix(0.9984 0 0 1 -37.8792 32.6177)" class="st2 st3 st4">#49 Buffalo</text>
				</g>
				<g transform="translate(294.77880043791896, 34.42127980492785)">
					<ellipse class="st1" cx="-89.7" cy="22.1" rx="2.9" ry="2.9"/>
					<text transform="matrix(0.9984 0 0 1 -126.9009 15.6788)" class="st2 st3 st4">#48 Tacoma</text>
					<text transform="matrix(0.9984 0 0 1 -126.9009 15.6788)" class="st2 st3 st4">#48 Tacoma</text>
				</g>
				<g transform="translate(927.7601609071943, 289.3884942135811)">
					<ellipse class="st1" cx="1" cy="59" rx="3.3" ry="3.3"/>
					<text transform="matrix(0.9984 0 0 1 -35.6556 52.3254)" class="st2 st3 st4">#47 Raleigh</text>
					<text transform="matrix(0.9984 0 0 1 -35.6556 52.3254)" class="st2 st3 st4">#47 Raleigh</text>
				</g>
				<g transform="translate(797.5878194812614, 299.73817211043956)">
					<ellipse class="st1" cx="-17.7" cy="60.5" rx="3.6" ry="3.6"/>
					<text transform="matrix(0.9984 0 0 1 -89.7363 53.4991)" class="st2 st3 st4">#46 Nashville-Davidson</text>
					<text transform="matrix(0.9984 0 0 1 -89.7363 53.4991)" class="st2 st3 st4">#46 Nashville-Davidson</text>
				</g>
				<g transform="translate(767.1509640617857, 164.06354427901454)">
					<ellipse class="st1" cx="-22" cy="40.9" rx="3.9" ry="3.9"/>
					<text transform="matrix(0.9984 0 0 1 -67.7906 33.498)" class="st2 st3 st4">#45 Milwaukee</text>
					<text transform="matrix(0.9984 0 0 1 -67.7906 33.498)" class="st2 st3 st4">#45 Milwaukee</text>
				</g>
				<g transform="translate(940.4242244507288, 224.39238422213475)">
					<ellipse class="st1" cx="2.8" cy="49.6" rx="4.2" ry="4.3"/>
					<text transform="matrix(0.9984 0 0 1 -42.6195 41.9191)" class="st2 st3 st4">#44 Alexandria</text>
					<text transform="matrix(0.9984 0 0 1 -42.6195 41.9191)" class="st2 st3 st4">#44 Alexandria</text>
				</g>
				<g transform="translate(1002.9848296947962, 123.70540685064111)">
					<ellipse class="st1" cx="11.7" cy="35" rx="4.6" ry="4.6"/>
					<text transform="matrix(0.9984 0 0 1 -37.4633 26.9909)" class="st2 st3 st4">#43 Manchester</text>
					<text transform="matrix(0.9984 0 0 1 -37.4633 26.9909)" class="st2 st3 st4">#43 Manchester</text>
				</g>
				<g transform="translate(894.4318773047138, 405.69612501573283)">
					<ellipse class="st5" cx="-3.8" cy="75.9" rx="4.9" ry="4.9"/>
					<text transform="matrix(0.9984 0 0 1 -54.1448 67.5558)" class="st2 st3 st4">#42 Jacksonville</text>
					<text transform="matrix(0.9984 0 0 1 -54.1448 67.5558)" class="st2 st3 st4">#42 Jacksonville</text>
				</g>
				<g transform="translate(800.2984058285083, 226.33649454095632)">
					<ellipse class="st5" cx="-17.3" cy="49.9" rx="5.2" ry="5.2"/>
					<text transform="matrix(0.9984 0 0 1 -67.2515 41.2192)" class="st2 st3 st4">#41 Indianapolis</text>
					<text transform="matrix(0.9984 0 0 1 -67.2515 41.2192)" class="st2 st3 st4">#41 Indianapolis</text>
				</g>
				<g transform="translate(399.9636766708274, 366.5355818238081)">
					<ellipse class="st5" cx="-74.6" cy="70.2" rx="5.6" ry="5.6"/>
					<text transform="matrix(0.9984 0 0 1 -110.0682 61.2232)" class="st2 st3 st4">#40 Tucson</text>
					<text transform="matrix(0.9984 0 0 1 -110.0682 61.2232)" class="st2 st3 st4">#40 Tucson</text>
				</g>
				<g transform="translate(891.0263852805928, 199.67467341094175)">
					<ellipse class="st5" cx="-4.3" cy="46" rx="5.9" ry="5.9"/>
					<text transform="matrix(0.9984 0 0 1 -48.5381 36.6984)" class="st2 st3 st4">#39 Pittsburgh</text>
					<text transform="matrix(0.9984 0 0 1 -48.5381 36.6984)" class="st2 st3 st4">#39 Pittsburgh</text>
				</g>
				<g transform="translate(800.8717469802322, 161.33239283338298)">
					<ellipse class="st5" cx="-17.2" cy="40.5" rx="6.2" ry="6.2"/>
					<text transform="matrix(0.9984 0 0 1 -72.8786 30.8121)" class="st2 st3 st4">#38 Grand Rapids</text>
					<text transform="matrix(0.9984 0 0 1 -72.8786 30.8121)" class="st2 st3 st4">#38 Grand Rapids</text>
				</g>
				<g transform="translate(302.1222214239519, 5.620187715842576)">
					<ellipse class="st5" cx="-88.6" cy="17.9" rx="6.5" ry="6.5"/>
					<text transform="matrix(0.9984 0 0 1 -135.8859 7.9042)" class="st2 st3 st4">#37 Bellingham</text>
					<text transform="matrix(0.9984 0 0 1 -135.8859 7.9042)" class="st2 st3 st4">#37 Bellingham</text>
				</g>
				<g transform="translate(691.5746124536707, 129.49006998232107)">
					<ellipse class="st5" cx="-32.9" cy="35.8" rx="6.9" ry="6.9"/>
					<text transform="matrix(0.9984 0 0 1 -70.224 25.5402)" class="st2 st3 st4">#36 St. Paul</text>
					<text transform="matrix(0.9984 0 0 1 -70.224 25.5402)" class="st2 st3 st4">#36 St. Paul</text>
				</g>
				<g transform="translate(825.8565533576021, 235.7953471342745)">
					<ellipse class="st6" cx="-13.6" cy="51.3" rx="7.2" ry="7.2"/>
					<text transform="matrix(0.9984 0 0 1 -57.1017 40.6285)" class="st2 st3 st4">#35 Cincinnati</text>
					<text transform="matrix(0.9984 0 0 1 -57.1017 40.6285)" class="st2 st3 st4">#35 Cincinnati</text>
				</g>
				<g transform="translate(513.5428320430922, 211.02479578860493)">
					<ellipse class="st6" cx="-58.3" cy="47.7" rx="7.5" ry="7.5"/>
					<text transform="matrix(0.9984 0 0 1 -106.3739 36.7096)" class="st2 st3 st4">#34 Fort Collins</text>
					<text transform="matrix(0.9984 0 0 1 -106.3739 36.7096)" class="st2 st3 st4">#34 Fort Collins</text>
				</g>
				<g transform="translate(511.3740897806657, 221.84816054250962)">
					<ellipse class="st6" cx="-58.7" cy="49.2" rx="7.8" ry="7.9"/>
					<text transform="matrix(0.9984 0 0 1 -95.6417 37.9516)" class="st2 st3 st4">#33 Boulder</text>
					<text transform="matrix(0.9984 0 0 1 -95.6417 37.9516)" class="st2 st3 st4">#33 Boulder</text>
				</g>
				<g transform="translate(839.8076851484752, 342.1387230501713)">
					<ellipse class="st6" cx="-11.6" cy="66.7" rx="8.2" ry="8.2"/>
					<text transform="matrix(0.9984 0 0 1 -45.9678 55.0693)" class="st2 st3 st4">#32 Atlanta</text>
					<text transform="matrix(0.9984 0 0 1 -45.9678 55.0693)" class="st2 st3 st4">#32 Atlanta</text>
				</g>
				<g transform="translate(959.3135725646229, 201.7331900211235)">
					<ellipse class="st6" cx="5.5" cy="46.3" rx="8.5" ry="8.5"/>
					<text transform="matrix(0.9984 0 0 1 -41.8029 34.3811)" class="st2 st3 st4">#31 Wilmington</text>
					<text transform="matrix(0.9984 0 0 1 -41.8029 34.3811)" class="st2 st3 st4">#31 Wilmington</text>
				</g>
				<g transform="translate(895.0864712136446, 305.541157371248)">
					<ellipse class="st6" cx="-3.7" cy="61.4" rx="8.8" ry="8.8"/>
					<text transform="matrix(0.9984 0 0 1 -44.9058 49.1063)" class="st2 st3 st4">#30 Charlotte</text>
					<text transform="matrix(0.9984 0 0 1 -44.9058 49.1063)" class="st2 st3 st4">#30 Charlotte</text>
				</g>
				<g transform="translate(662.4775796009625, 434.43120212840665)">
					<ellipse class="st6" cx="-37" cy="80.1" rx="9.1" ry="9.2"/>
					<text transform="matrix(0.9984 0 0 1 -75.919 67.4711)" class="st2 st3 st4">#29 Houston</text>
					<text transform="matrix(0.9984 0 0 1 -75.919 67.4711)" class="st2 st3 st4">#29 Houston</text>
				</g>
				<g transform="translate(514.326516782996, 246.18327197025644)">
					<ellipse class="st7" cx="-58.2" cy="52.8" rx="9.5" ry="9.5"/>
					<text transform="matrix(0.9984 0 0 1 -124.5736 39.8441)" class="st2 st3 st4">#28 Colorado Springs</text>
					<text transform="matrix(0.9984 0 0 1 -124.5736 39.8441)" class="st2 st3 st4">#28 Colorado Springs</text>
				</g>
				<g transform="translate(945.0626353190864, 213.63618191995863)">
					<ellipse class="st7" cx="3.4" cy="48" rx="9.8" ry="9.8"/>
					<text transform="matrix(0.9984 0 0 1 -38.8898 34.7984)" class="st2 st3 st4">#27 Baltimore</text>
					<text transform="matrix(0.9984 0 0 1 -38.8898 34.7984)" class="st2 st3 st4">#27 Baltimore</text>
				</g>
				<g transform="translate(964.4951127350569, 194.9191939328416)">
					<ellipse class="st7" cx="6.2" cy="45.3" rx="10.1" ry="10.1"/>
					<text transform="matrix(0.9984 0 0 1 -44.5107 31.7566)" class="st2 st3 st4">#26 Philadelphia</text>
					<text transform="matrix(0.9984 0 0 1 -44.5107 31.7566)" class="st2 st3 st4">#26 Philadelphia</text>
				</g>
				<g transform="translate(637.339838020815, 374.946944393561)">
					<ellipse class="st7" cx="-40.6" cy="71.4" rx="10.5" ry="10.5"/>
					<text transform="matrix(0.9984 0 0 1 -73.0293 57.5374)" class="st2 st3 st4">#25 Dallas</text>
					<text transform="matrix(0.9984 0 0 1 -73.0293 57.5374)" class="st2 st3 st4">#25 Dallas</text>
				</g>
				<g transform="translate(846.4800778596418, 214.14441814262727)">
					<ellipse class="st7" cx="-10.7" cy="48.1" rx="10.8" ry="10.8"/>
					<text transform="matrix(0.9984 0 0 1 -54.9117 33.8907)" class="st2 st3 st4">#24 Columbus</text>
					<text transform="matrix(0.9984 0 0 1 -54.9117 33.8907)" class="st2 st3 st4">#24 Columbus</text>
				</g>
				<g transform="translate(745.8550968537543, 164.53056053262674)">
					<ellipse class="st7" cx="-25.1" cy="40.9" rx="11.1" ry="11.1"/>
					<text transform="matrix(0.9984 0 0 1 -64.3629 26.3679)" class="st2 st3 st4">#23 Madison</text>
					<text transform="matrix(0.9984 0 0 1 -64.3629 26.3679)" class="st2 st3 st4">#23 Madison</text>
				</g>
				<g transform="translate(865.9403598523792, 302.98200684326105)">
					<ellipse class="st7" cx="-7.9" cy="61" rx="11.4" ry="11.5"/>
					<text transform="matrix(0.9984 0 0 1 -48.3203 46.1196)" class="st2 st3 st4">#22 Asheville</text>
					<text transform="matrix(0.9984 0 0 1 -48.3203 46.1196)" class="st2 st3 st4">#22 Asheville</text>
				</g>
				<g transform="translate(705.2045867827214, 88.01254427748984)">
					<ellipse class="st8" cx="-30.9" cy="29.8" rx="11.8" ry="11.8"/>
					<text transform="matrix(0.9984 0 0 1 -64.0825 14.6173)" class="st2 st3 st4">#21 Duluth</text>
					<text transform="matrix(0.9984 0 0 1 -64.0825 14.6173)" class="st2 st3 st4">#21 Duluth</text>
				</g>
				<g transform="translate(940.7041494172834, 222.44173267125893)">
					<ellipse class="st8" cx="2.8" cy="49.3" rx="12.1" ry="12.1"/>
					<text transform="matrix(0.9984 0 0 1 -46.5128 33.7848)" class="st2 st3 st4">#20 Washington</text>
					<text transform="matrix(0.9984 0 0 1 -46.5128 33.7848)" class="st2 st3 st4">#20 Washington</text>
				</g>
				<g transform="translate(304.13633908627367, 33.376816527301116)">
					<ellipse class="st8" cx="-88.3" cy="21.9" rx="12.4" ry="12.4"/>
					<text transform="matrix(0.9984 0 0 1 -123.0197 6.0407)" class="st2 st3 st4">#19 Seattle</text>
					<text transform="matrix(0.9984 0 0 1 -123.0197 6.0407)" class="st2 st3 st4">#19 Seattle</text>
				</g>
				<g transform="translate(938.9287328756399, 251.3294470366693)">
					<ellipse class="st8" cx="2.5" cy="53.5" rx="12.7" ry="12.8"/>
					<text transform="matrix(0.9984 0 0 1 -41.6768 37.318)" class="st2 st3 st4">#18 Richmond</text>
					<text transform="matrix(0.9984 0 0 1 -41.6768 37.318)" class="st2 st3 st4">#18 Richmond</text>
				</g>
				<g transform="translate(242.94956881961195, 217.3968843510122)">
					<ellipse class="st8" cx="-97.1" cy="48.6" rx="13.1" ry="13.1"/>
					<text transform="matrix(0.9984 0 0 1 -154.263 32.0728)" class="st2 st3 st4">#17 San Francisco</text>
					<text transform="matrix(0.9984 0 0 1 -154.263 32.0728)" class="st2 st3 st4">#17 San Francisco</text>
				</g>
				<g transform="translate(977.5683879639435, 177.72506125325162)">
					<ellipse class="st8" cx="8.1" cy="42.8" rx="13.4" ry="13.4"/>
					<text transform="matrix(0.9984 0 0 1 -34.248 25.9927)" class="st2 st3 st4">#16 New York</text>
					<text transform="matrix(0.9984 0 0 1 -34.248 25.9927)" class="st2 st3 st4">#16 New York</text>
				</g>
				<g transform="translate(306.4783148713074, 332.3829375326111)">
					<ellipse class="st8" cx="-88" cy="65.3" rx="13.7" ry="13.7"/>
					<text transform="matrix(0.9984 0 0 1 -134.1209 48.0907)" class="st2 st3 st4">#15 Oceanside</text>
					<text transform="matrix(0.9984 0 0 1 -134.1209 48.0907)" class="st2 st3 st4">#15 Oceanside</text>
				</g>
				<g transform="translate(478.70407130272713, 316.7182429874481)">
					<ellipse class="st9" cx="-63.3" cy="63" rx="14" ry="14.1"/>
					<text transform="matrix(0.9984 0 0 1 -115.2016 45.4927)" class="st2 st3 st4">#14 Albuquerque</text>
					<text transform="matrix(0.9984 0 0 1 -115.2016 45.4927)" class="st2 st3 st4">#14 Albuquerque</text>
				</g>
				<g transform="translate(933.8419758303551, 212.888582188324)">
					<ellipse class="st9" cx="1.8" cy="47.9" rx="14.4" ry="14.4"/>
					<text transform="matrix(0.9984 0 0 1 -40.1115 30.1104)" class="st2 st3 st4">#13 Frederick</text>
					<text transform="matrix(0.9984 0 0 1 -40.1115 30.1104)" class="st2 st3 st4">#13 Frederick</text>
				</g>
				<g transform="translate(620.0553320891339, 423.9301765962216)">
					<ellipse class="st9" cx="-43.1" cy="78.5" rx="14.7" ry="14.7"/>
					<text transform="matrix(0.9984 0 0 1 -75.1306 60.3872)" class="st2 st3 st4">#12 Austin</text>
					<text transform="matrix(0.9984 0 0 1 -75.1306 60.3872)" class="st2 st3 st4">#12 Austin</text>
				</g>
				<g transform="translate(294.1557468021496, 99.94707774454366)">
					<ellipse class="st9" cx="-89.7" cy="31.6" rx="15" ry="15"/>
					<text transform="matrix(0.9984 0 0 1 -118.6069 13.0773)" class="st2 st3 st4">#11 Bend</text>
					<text transform="matrix(0.9984 0 0 1 -118.6069 13.0773)" class="st2 st3 st4">#11 Bend</text>
				</g>
				<g transform="translate(410.8818457176295, 193.64740869384673)">
					<ellipse class="st9" cx="-73" cy="45.1" rx="15.4" ry="15.4"/>
					<text transform="matrix(0.9984 0 0 1 -128.7007 26.337)" class="st3 st4">#10 Salt Lake City</text>
					<text transform="matrix(0.9984 0 0 1 -128.7007 26.337)" class="st3 st4">#10 Salt Lake City</text>
				</g>
				<g transform="translate(740.1863921484531, 254.43105764860252)">
					<ellipse class="st9" cx="-25.9" cy="54" rx="15.7" ry="15.7"/>
					<text transform="matrix(0.9984 0 0 1 -62.1219 34.8238)" class="st3 st4">#9 St. Louis</text>
					<text transform="matrix(0.9984 0 0 1 -62.1219 34.8238)" class="st3 st4">#9 St. Louis</text>
				</g>
				<g transform="translate(828.3845081676416, 172.57569148073014)">
					<ellipse class="st9" cx="-13.3" cy="42.1" rx="16" ry="16"/>
					<text transform="matrix(0.9984 0 0 1 -52.9392 22.6274)" class="st3 st4">#8 Ann Arbor</text>
					<text transform="matrix(0.9984 0 0 1 -52.9392 22.6274)" class="st3 st4">#8 Ann Arbor</text>
				</g>
				<g transform="translate(774.007460355441, 186.18224951799596)">
					<ellipse class="st10" cx="-21.1" cy="44.1" rx="16.3" ry="16.4"/>
					<text transform="matrix(0.9984 0 0 1 -55.7565 24.2738)" class="st3 st4">#7 Chicago</text>
					<text transform="matrix(0.9984 0 0 1 -55.7565 24.2738)" class="st3 st4">#7 Chicago</text>
				</g>
				<g transform="translate(689.0386864833872, 128.9033175093382)">
					<ellipse class="st10" cx="-33.2" cy="35.8" rx="16.7" ry="16.7"/>
					<text transform="matrix(0.9984 0 0 1 -79.3561 15.6406)" class="st3 st4">#6 Minneapolis</text>
					<text transform="matrix(0.9984 0 0 1 -79.3561 15.6406)" class="st3 st4">#6 Minneapolis</text>
				</g>
				<g transform="translate(281.914709727544, 66.8998404735645)">
					<ellipse class="st10" cx="-91.5" cy="26.8" rx="17" ry="17"/>
					<text transform="matrix(0.9984 0 0 1 -126.5793 6.3218)" class="st3 st4">#5 Portland</text>
					<text transform="matrix(0.9984 0 0 1 -126.5793 6.3218)" class="st3 st4">#5 Portland</text>
				</g>
				<g transform="translate(311.2064154000827, 466.3120177743191)">
					<ellipse class="st10" cx="-137.3" cy="174.7" rx="17.3" ry="17.3"/>
					<text transform="matrix(0.9984 0 0 1 -179.6405 153.9146)" class="st3 st4">#4 Anchorage</text>
				</g>
				<g transform="translate(515.9643353147462, 228.82732493620904)">
					<ellipse class="st10" cx="-58" cy="50.3" rx="17.6" ry="17.7"/>
					<text transform="matrix(0.9984 0 0 1 -89.6401 29.1502)" class="st3 st4">#3 Denver</text>
					<text transform="matrix(0.9984 0 0 1 -89.6401 29.1502)" class="st3 st4">#3 Denver</text>
				</g>
				<g transform="translate(299.9053056860688, 336.93543839947245)">
					<ellipse class="st10" cx="-88.9" cy="65.9" rx="18" ry="18"/>
					<text transform="matrix(0.9984 0 0 1 -130.4864 44.4991)" class="st3 st4">#2 San Diego</text>
					<text transform="matrix(0.9984 0 0 1 -130.4864 44.4991)" class="st3 st4">#2 San Diego</text>
				</g>
				<g transform="translate(241.23472479004386, 202.76856863958767)">
					<ellipse class="st10" cx="-97.3" cy="46.5" rx="18.3" ry="18.3"/>
					<text transform="matrix(0.9984 0 0 1 -142.6957 24.7168)" class="st3 st4">#1 Santa Rosa</text>
					<text transform="matrix(0.9984 0 0 1 -142.6957 24.7168)" class="st3 st4">#1 Santa Rosa</text>
				</g>
			</g>
		</g>
		<g transform="translate(959.2238433901207, 152.3531649674352)" class="st11">
			<ellipse cx="5.5" cy="37.4" rx="3.4" ry="3.4"/>
			<text transform="matrix(0.9984 0 0 1 12.3152 39.1615)" class="st3 st4">Danbury</text>
		</g>
		<g transform="translate(263.8483833771703, 190.26646036123157)" class="st11">
			<ellipse cx="-94.1" cy="42.9" rx="3.4" ry="3.4"/>
			<text transform="matrix(0.9984 0 0 1 -87.2239 44.6593)" class="st3 st4">Santa Rosa</text>
		</g>
	</g>
</g>
</svg>
